<?xml version="1.0" encoding="UTF-8" standalone="no"?>
<svg
   xmlns:dc="http://purl.org/dc/elements/1.1/"
   xmlns:cc="http://creativecommons.org/ns#"
   xmlns:rdf="http://www.w3.org/1999/02/22-rdf-syntax-ns#"
   xmlns:svg="http://www.w3.org/2000/svg"
   xmlns="http://www.w3.org/2000/svg"
   xmlns:xlink="http://www.w3.org/1999/xlink"
   xmlns:sodipodi="http://sodipodi.sourceforge.net/DTD/sodipodi-0.dtd"
   xmlns:inkscape="http://www.inkscape.org/namespaces/inkscape"
   width="210mm"
   height="297mm"
   viewBox="0 0 210 297"
   version="1.1"
   id="svg8"
   inkscape:version="1.0.1 (3bc2e813f5, 2020-09-07)"
   sodipodi:docname="Logo residencial.svg">
  <defs
     id="defs2" />
  <sodipodi:namedview
     id="base"
     pagecolor="#ffffff"
     bordercolor="#666666"
     borderopacity="1.0"
     inkscape:pageopacity="0.0"
     inkscape:pageshadow="2"
     inkscape:zoom="0.49497475"
     inkscape:cx="181.03146"
     inkscape:cy="318.08783"
     inkscape:document-units="mm"
     inkscape:current-layer="layer1"
     inkscape:document-rotation="0"
     showgrid="false"
     inkscape:window-width="1366"
     inkscape:window-height="715"
     inkscape:window-x="-8"
     inkscape:window-y="-8"
     inkscape:window-maximized="1" />
  <metadata
     id="metadata5">
    <rdf:RDF>
      <cc:Work
         rdf:about="">
        <dc:format>image/svg+xml</dc:format>
        <dc:type
           rdf:resource="http://purl.org/dc/dcmitype/StillImage" />
        <dc:title />
      </cc:Work>
    </rdf:RDF>
  </metadata>
  <g
     inkscape:label="Capa 1"
     inkscape:groupmode="layer"
     id="layer1">
    <g
       id="g1168"
       transform="matrix(1.0160276,0,0,1.1003736,-78.813979,-127.13352)"
       inkscape:export-xdpi="128.39999"
       inkscape:export-ydpi="128.39999"
       inkscape:export-filename="C:\Users\luis_\Documents\UNICAH\2021\Primer periodo\Diseño de portales web II\Proyecto primer parcial\Desarrollo-Web-II-IP\landinpage\img\Bg-logo-m.png">
      <path
         style="fill:#585858;fill-opacity:1;stroke:#000000;stroke-width:0;stroke-linecap:butt;stroke-linejoin:miter;stroke-miterlimit:4;stroke-dasharray:none;stroke-opacity:1"
         d="m 68.955538,187.62321 46.237632,-29.39965 52.38482,33.40869 -52.91936,-41.96132 z"
         id="path865" />
      <path
         style="fill:#585858;fill-opacity:1;stroke:#000000;stroke-width:0;stroke-linecap:butt;stroke-linejoin:miter;stroke-miterlimit:4;stroke-dasharray:none;stroke-opacity:1"
         d="m 150.52902,175.09747 3.49628,3.2128 12.18973,-9.07143 c 0,0 36.38021,22.96205 35.90773,22.67857 C 201.6503,191.63393 166.593,162.43527 166.593,162.43527 Z"
         id="path867" />
      <path
         style="fill:#f8b33a;fill-opacity:1;stroke:#000000;stroke-width:0;stroke-linecap:butt;stroke-linejoin:miter;stroke-miterlimit:4;stroke-dasharray:none;stroke-opacity:1"
         d="m 84.056267,107.04144 0.267268,5.47903 c 0,0 11.348334,-6.14368 25.257105,-6.94666 12.06957,-0.69681 26.26523,3.51918 34.19309,8.22066 6.82856,4.04956 16.95459,12.72777 21.83597,22.16248 7.31662,14.14154 7.84822,29.48289 7.84822,29.48289 l 4.14268,2.27179 c 0,0 2.2664,-15.31685 -4.18959,-31.0623 -6.82918,-16.65559 -19.20683,-24.92652 -27.57266,-30.0024 -9.54713,-5.79262 -25.74166,-9.025748 -39.22005,-7.258672 -13.020577,1.707052 -22.562033,7.653182 -22.562033,7.653182 z"
         id="path871"
         sodipodi:nodetypes="ccsssccsssc" />
      <path
         style="fill:#585858;fill-opacity:1;stroke:#000000;stroke-width:0;stroke-linecap:butt;stroke-linejoin:miter;stroke-miterlimit:4;stroke-dasharray:none;stroke-opacity:1"
         d="m 105.83333,181.14509 7.74851,-0.0945 -1e-5,-7.84301 c 0,0 -3.25333,-0.12857 -5.504,2.10303 -2.30879,2.28922 -2.2445,5.83448 -2.2445,5.83448 z"
         id="path948"
         sodipodi:nodetypes="cccsc" />
      <path
         style="fill:#585858;fill-opacity:1;stroke:#000000;stroke-width:0;stroke-linecap:butt;stroke-linejoin:miter;stroke-miterlimit:4;stroke-dasharray:none;stroke-opacity:1"
         d="m 116.44738,173.32258 0.065,7.74882 7.84296,0.0299 c 0,0 0.14096,-3.25282 -2.08204,-5.51198 -2.28041,-2.3175 -5.82589,-2.26672 -5.82589,-2.26672 z"
         id="path948-7"
         sodipodi:nodetypes="cccsc" />
      <path
         style="fill:#585858;fill-opacity:1;stroke:#000000;stroke-width:0;stroke-linecap:butt;stroke-linejoin:miter;stroke-miterlimit:4;stroke-dasharray:none;stroke-opacity:1"
         d="m 113.75165,190.35848 -0.0736,-7.74874 -7.84299,-0.0212 c 0,0 -0.13735,3.25297 2.08816,5.50967 2.28298,2.31497 5.8284,2.26025 5.8284,2.26025 z"
         id="path948-7-7"
         sodipodi:nodetypes="cccsc" />
      <path
         style="fill:#585858;fill-opacity:1;stroke:#000000;stroke-width:0;stroke-linecap:butt;stroke-linejoin:miter;stroke-miterlimit:4;stroke-dasharray:none;stroke-opacity:1"
         d="m 124.23882,182.5885 -7.74892,0.0511 -0.0439,7.84289 c 0,0 3.25255,0.1468 5.51569,-2.07217 2.32159,-2.27625 2.27715,-5.82181 2.27715,-5.82181 z"
         id="path948-7-7-6"
         sodipodi:nodetypes="cccsc" />
      <path
         style="fill:#1671b0;fill-opacity:1;stroke:#000000;stroke-width:0;stroke-linecap:butt;stroke-linejoin:miter;stroke-miterlimit:4;stroke-dasharray:none;stroke-opacity:1"
         d="m 95.816125,161.96533 5.211755,-3.87541 -0.26727,-30.86963 H 82.319012 V 89.668926 H 31.136899 v 99.290624 h 5.612662 V 94.613411 h 39.422255 v 37.952269 h 19.777942 z"
         id="path995" />
      <rect
         style="fill:#1671b0;fill-opacity:1;stroke:#ff5d1b;stroke-width:16.9;stroke-linecap:round;stroke-linejoin:round;stroke-opacity:0;paint-order:stroke fill markers"
         id="rect997"
         width="11.091685"
         height="10.690781"
         x="41.694046"
         y="100.7606" />
      <rect
         style="fill:#1671b0;fill-opacity:1;stroke:#ff5d1b;stroke-width:16.9;stroke-linecap:round;stroke-linejoin:round;stroke-opacity:0;paint-order:stroke fill markers"
         id="rect997-7"
         width="11.091685"
         height="10.690781"
         x="59.667923"
         y="100.761" />
      <rect
         style="fill:#1671b0;fill-opacity:1;stroke:#ff5d1b;stroke-width:16.9;stroke-linecap:round;stroke-linejoin:round;stroke-opacity:0;paint-order:stroke fill markers"
         id="rect997-6"
         width="11.091685"
         height="10.690781"
         x="41.694"
         y="120.13765" />
      <rect
         style="fill:#1671b0;fill-opacity:1;stroke:#ff5d1b;stroke-width:16.9;stroke-linecap:round;stroke-linejoin:round;stroke-opacity:0;paint-order:stroke fill markers"
         id="rect997-6-2"
         width="11.091685"
         height="10.690781"
         x="41.694"
         y="139.24742" />
      <rect
         style="fill:#1671b0;fill-opacity:1;stroke:#ff5d1b;stroke-width:16.9;stroke-linecap:round;stroke-linejoin:round;stroke-opacity:0;paint-order:stroke fill markers"
         id="rect997-6-2-7"
         width="11.091685"
         height="10.690781"
         x="41.694"
         y="158.22356" />
      <rect
         style="fill:#1671b0;fill-opacity:1;stroke:#ff5d1b;stroke-width:16.9;stroke-linecap:round;stroke-linejoin:round;stroke-opacity:0;paint-order:stroke fill markers"
         id="rect997-7-9"
         width="11.091685"
         height="10.690781"
         x="59.667923"
         y="120.138" />
      <rect
         style="fill:#1671b0;fill-opacity:1;stroke:#ff5d1b;stroke-width:16.9;stroke-linecap:round;stroke-linejoin:round;stroke-opacity:0;paint-order:stroke fill markers"
         id="rect997-7-9-5"
         width="11.091685"
         height="10.690781"
         x="77.708618"
         y="139.24699" />
      <rect
         style="fill:#1671b0;fill-opacity:1;stroke:#ff5d1b;stroke-width:16.9;stroke-linecap:round;stroke-linejoin:round;stroke-opacity:0;paint-order:stroke fill markers"
         id="rect997-7-9-5-3"
         width="11.091685"
         height="10.690781"
         x="59.667919"
         y="139.24699" />
      <rect
         style="fill:#1671b0;fill-opacity:1;stroke:#ff5d1b;stroke-width:16.9;stroke-linecap:round;stroke-linejoin:round;stroke-opacity:0;paint-order:stroke fill markers"
         id="rect997-7-9-5-3-4"
         width="11.091685"
         height="10.690781"
         x="77.708618"
         y="158.224" />
      <rect
         style="fill:#1671b0;fill-opacity:1;stroke:#ff5d1b;stroke-width:16.9;stroke-linecap:round;stroke-linejoin:round;stroke-opacity:0;paint-order:stroke fill markers"
         id="rect997-7-9-5-3-4-4"
         width="11.091685"
         height="10.690781"
         x="59.53429"
         y="158.224" />
      <a
         xlink:href="Lomas"
         id="a1143"
         style="stroke-width:0;stroke-miterlimit:4;stroke-dasharray:none">
        <path
           id="path24"
           style="fill:#309130;fill-opacity:1;stroke:#000000;stroke-width:0;stroke-linecap:butt;stroke-linejoin:miter;stroke-miterlimit:4;stroke-dasharray:none;stroke-opacity:1"
           d="m 42.565007,187.08589 c -27.013772,-0.0897 -45.0417751,9.68798 -49.966458,11.81736 -0.7691342,0.25302 -1.2216307,0.41238 -1.2216307,0.41238 0,0 28.1059907,-9.40358 57.4456487,-7.68126 29.339656,1.72233 48.078342,9.9482 67.958073,15.4105 17.96036,5.47956 44.45582,6.72526 53.92229,6.09421 38.88738,-2.59227 52.30843,-12.44886 52.30843,-12.44886 0,0 -30.60614,8.2046 -62.34963,6.85672 -20.57306,-0.87356 -60.936807,-13.08147 -67.421242,-14.80083 -18.74439,-4.93764 -32.772712,-5.37725 -49.223876,-5.64627 -0.486786,-0.008 -0.970476,-0.0124 -1.451591,-0.014 z"
           sodipodi:nodetypes="ccczcscscscc" />
      </a>
    </g>
  </g>
</svg>
